<svg xmlns="http://www.w3.org/2000/svg" width="19" height="20" fill="none" viewBox="0 0 19 20">
    <path fill="#fff" d="M15.995 2.097A2.25 2.25 0 0 0 13.75 0H2.25l-.154.005A2.25 2.25 0 0 0 0 2.251v15.498l.005.154A2.25 2.25 0 0 0 2.25 20h7.568l-1.5-1.5H2.25l-.102-.007a.75.75 0 0 1-.648-.743V2.251l.007-.102a.75.75 0 0 1 .743-.648h11.5l.102.007a.75.75 0 0 1 .648.743v11.567l1.159-1.159c.106-.106.22-.2.34-.28V2.25l-.004-.154v.001Zm-3.707 17.902a.75.75 0 0 1-.569-.219l-2.5-2.502a.75.75 0 1 1 1.062-1.06l1.969 1.971 4.47-4.47a.75.75 0 1 1 1.06 1.061l-5 5a.75.75 0 0 1-.492.219ZM9.84 14.5a2.301 2.301 0 0 0-.182 0H7.245a.75.75 0 1 1 0-1.5h5.004a.75.75 0 1 1 0 1.5H9.84ZM5 5.752a1 1 0 1 1-2 0 1 1 0 0 1 2 0Zm1.496-.002a.75.75 0 0 1 .75-.75h5.004a.75.75 0 1 1 0 1.5H7.246a.75.75 0 0 1-.75-.75ZM7.246 9a.75.75 0 0 0 0 1.5h5.004a.75.75 0 1 0 0-1.5H7.246ZM4 10.75a1 1 0 1 0 0-2 1 1 0 0 0 0 2Zm1 2.998a1 1 0 1 1-2 0 1 1 0 0 1 2 0Z"/>
  </svg>
  